<?xml version="1.0" encoding="utf-8"?>
<!-- Generator: Adobe Illustrator 27.1.1, SVG Export Plug-In . SVG Version: 6.00 Build 0)  -->
<svg version="1.1" id="Layer_1" xmlns="http://www.w3.org/2000/svg" xmlns:xlink="http://www.w3.org/1999/xlink" x="0px" y="0px"
	 viewBox="0 0 50 50" style="enable-background:new 0 0 50 50;" xml:space="preserve">
<style type="text/css">
	.st0{fill:#C38C66;}
	.st1{fill:#B57F60;}
	.st2{fill:#F3DAB3;}
	.st3{fill:#EAC89F;}
	.st4{fill:#4C404E;}
	.st5{fill:#6F4949;}
	.st6{fill:#4B3F4E;}
</style>
<g>
	<g>
		<path class="st0" d="M40.72,0.33c0.57,0,1.13,0,1.7,0c0.25,0.01,0.64,0.04,1.09,0.13c2.32,0.46,3.77,1.97,4.24,2.49
			c0.48,0.54,0.86,1.15,1.18,1.79c0.63,1.24,0.58,2.58,0.58,3.91c0,0.36,0,0.73-0.04,1.09c-0.22,2.01-1.24,3.58-2.73,4.88
			c-0.52,0.46-1.12,0.79-1.73,1.1c-0.56,0.29-0.62,0.42-0.33,0.97c1.19,2.28,2.02,4.69,2.39,7.24c0.24,1.64,0.32,3.29,0.2,4.96
			c-0.14,1.79-0.44,3.55-1,5.25c-0.93,2.86-2.3,5.5-4.28,7.79c-0.23,0.27-0.44,0.55-0.7,0.79c-0.05,0.05-0.11,0.11-0.16,0.16
			c-0.17,0.16-0.32,0.33-0.53,0.45c-0.49-0.03-0.79,0.31-1.12,0.57c-1.31,1.03-2.79,1.75-4.32,2.37c-3.17,1.27-6.48,1.74-9.86,1.5
			c-4.98-0.36-9.38-2.2-13.13-5.52c-4.02-3.55-6.43-8.02-7.32-13.27c-0.68-3.99-0.28-7.91,1.2-11.71c0.6-1.54,1.37-2.99,2.26-4.37
			c0.17-0.26,0.38-0.5,0.58-0.74c0.19-0.23,0.27-0.46,0.28-0.74c0.25-0.39,0.61-0.68,0.96-0.98c0.91-0.77,1.86-1.5,2.86-2.15
			c0.92-0.6,1.94-1,2.85-1.6c0.07-0.05,0.14-0.08,0.22-0.09c0.97-0.31,1.92-0.69,2.9-0.96c2.41-0.67,4.86-0.87,7.34-0.74
			c2.21,0.12,4.36,0.57,6.43,1.34c0.65,0.24,0.81,0.16,1.03-0.47c0.81-2.3,2.3-3.97,4.52-4.99c0.33-0.15,1.11-0.29,1.97-0.4
			C40.44,0.35,40.6,0.34,40.72,0.33z"/>
		<path class="st1" d="M40.6,43.34c-3.1,2.73-5.99,4.1-7.79,4.79c-1.82,0.7-3.28,1-3.73,1.09c-1.87,0.36-3.77,0.47-5.7,0.34
			c-3.74-0.27-7.22-1.42-10.39-3.47c-2.91-1.88-5.3-4.28-7.04-7.27c-1.51-2.6-2.55-5.4-2.96-8.42c-0.22-1.65-0.26-3.31-0.14-4.95
			c0.22-3.04,1.08-5.92,2.58-8.59c0.52-0.93,0.53-0.87-0.45-1.33c-1.98-0.93-3.31-2.5-4.07-4.54c-0.2-0.54-0.33-1.1-0.49-1.65
			c0-0.73,0-1.47,0-2.2c0.1-0.19,0.07-0.41,0.08-0.6C0.59,5,1.36,3.8,2.35,2.72c0.53-0.58,1.12-1.07,1.79-1.49
			C5.02,0.68,5.98,0.44,7,0.38c0.08,0,0.16,0.01,0.23-0.05c0.73,0,1.47,0,2.2,0c0.28,0.15,0.59,0.09,0.88,0.12
			c1.23,0.13,2.23,0.73,3.16,1.49c1.32,1.07,2.23,2.43,2.68,4.08c0.07,0.24,0.23,0.53-0.11,0.72C16,6.91,15.89,7.01,15.74,7.09
			c-0.89,0.46-1.77,0.92-2.66,1.38c-0.28-0.07-0.24-0.31-0.26-0.51c-0.15-1.23-0.61-2.3-1.57-3.14C9.9,3.63,7.63,3.42,6.06,4.36
			C4.36,5.37,3.51,7.3,3.93,9.15c0.41,1.76,1.5,2.88,3.2,3.43c0.59,0.19,0.81,0.13,1.21-0.36c0.19-0.23,0.39-0.47,0.62-0.67
			c0.13-0.12,0.27-0.25,0.46-0.11c0.1,0.21-0.08,0.33-0.17,0.46c-2.24,3.13-3.75,6.55-4.26,10.38c-0.65,4.95,0.23,9.61,2.66,13.98
			c2.14,3.86,5.17,6.77,9.05,8.82c2.53,1.34,5.22,2.12,8.07,2.39c4.32,0.39,8.42-0.35,12.29-2.33c0.54-0.27,1.36-1.51,2.85-1.76
			C40.2,43.34,40.44,43.33,40.6,43.34z"/>
		<path class="st2" d="M17.95,26.95c1.49-1.48,3.29-2.35,5.34-2.65c3.04-0.44,5.83,0.24,8.22,2.23c2.11,1.76,3.35,4.01,3.61,6.77
			c0.29,3.03-0.44,5.73-2.49,8.04c-2.09,1.82-4.56,2.32-7.23,2.07c-1.99-0.19-3.78-0.91-5.34-2.16c-2.32-1.86-3.62-4.28-3.99-7.22
			c-0.24-1.94,0.1-3.78,0.87-5.56C17.2,27.91,17.67,27.49,17.95,26.95z"/>
		<path class="st2" d="M41.61,3.49c2.28,0.01,4.31,1.77,4.62,3.94c0.41,2.93-1.49,4.83-3.33,5.38c-0.69,0.21-1.07,0.16-1.56-0.44
			c-1.09-1.34-2.4-2.48-3.87-3.39c-0.69-0.43-0.72-0.96-0.61-1.57C37.26,5.15,39.31,3.48,41.61,3.49z"/>
		<path class="st3" d="M9.42,11.44c-0.45,0.47-0.9,0.95-1.35,1.42c-0.11,0.12-0.19,0.2-0.4,0.15c-1.7-0.42-3-1.32-3.74-2.97
			c-1.25-2.79,0.78-6.2,3.83-6.47c1.84-0.16,3.31,0.42,4.41,1.89c0.67,0.89,0.88,1.92,0.91,3.01c-1.02,0.76-2.07,1.49-3.02,2.33
			C9.84,11,9.64,11.23,9.42,11.44z"/>
		<path class="st3" d="M17.95,26.95c-0.12,0.68-0.6,1.18-0.86,1.8c-1.28,3.12-1.15,6.17,0.48,9.13c2.01,3.64,5.17,5.35,9.27,5.35
			c1.89,0,3.64-0.59,5.24-1.61c0.17-0.11,0.37-0.19,0.55-0.28c-1.45,1.7-3.29,2.77-5.46,3.23c-4.92,1.05-9.68-1.34-11.67-6
			c-1.68-3.94-0.9-8.32,2.22-11.44C17.79,27.06,17.88,27.01,17.95,26.95z"/>
		<path class="st4" d="M34.84,20.26c1.13,0,1.98,0.83,1.96,1.93c-0.02,1.12-0.9,2.01-2,2c-0.99-0.01-1.98-0.99-1.99-1.99
			C32.79,21.15,33.73,20.25,34.84,20.26z"/>
		<path class="st4" d="M15.03,20.26C16.2,20.25,17,21.03,17,22.17c0,1.13-0.89,2.02-2.02,2.02c-0.95,0-1.9-0.95-1.91-1.9
			C13.07,21.06,13.83,20.26,15.03,20.26z"/>
		<path class="st5" d="M25.72,33.38c0.01,0.62,0.01,1.24,0.02,1.87c0.01,0.81,0.66,1.55,1.4,1.58c0.91,0.04,1.69-0.6,1.75-1.48
			c0.04-0.62,0.33-0.87,0.95-0.82c0.6,0.05,0.59,0.44,0.59,0.88c-0.02,1.23-0.83,2.25-1.94,2.78c-1.31,0.64-2.32,0.15-3.3-0.63
			c-0.23-0.18-0.35-0.17-0.55,0.02c-0.54,0.5-1.2,0.83-1.91,0.94c-0.69,0.12-1.31-0.28-1.87-0.65c-0.9-0.6-1.45-1.45-1.45-2.57
			c0-0.42,0.17-0.74,0.65-0.78c0.52-0.05,0.83,0.08,0.89,0.69c0.1,1.03,0.83,1.67,1.74,1.61c0.84-0.05,1.47-0.82,1.49-1.82
			c0.01-0.54,0.01-1.08,0.02-1.63c0.03-0.04,0.05-0.1,0.09-0.1C24.76,33.2,25.26,33.06,25.72,33.38z"/>
		<path class="st6" d="M25.72,33.38c-0.51,0.1-1.02,0.11-1.53,0c-1.12-0.51-1.84-1.49-2.64-2.35c-0.53-0.57-0.15-1.3,0.64-1.31
			c1.84-0.02,3.67-0.01,5.51-0.01c0.36,0,0.65,0.18,0.77,0.52c0.11,0.33,0.07,0.63-0.23,0.89C27.38,31.86,26.73,32.82,25.72,33.38z"
			/>
	</g>
</g>
<g>
</g>
<g>
</g>
<g>
</g>
<g>
</g>
<g>
</g>
<g>
</g>
</svg>
